#!OML:ASF F:\VICON\USERDATA\INSTALL\rory3\rory3.ASF
:FULLY-SPECIFIED
:DEGREES
984
root -2.27964 14.422 21.0881 24.6167 42.5553 63.2104
lowerback -20.2332 -13.7233 -2.39342
upperback -14.4426 -16.9815 1.14759
thorax -3.92448 -8.3346 -0.364972
lowerneck -2.50948 -11.7659 -16.5345
upperneck 47.8162 -13.4384 -9.00931
head 19.7778 -9.08571 -3.78219
rclavicle -9.54166e-014 -9.54166e-014
rhumerus -3.04116 -38.7541 28.655
rradius 35.0776
rwrist -9.32135
rhand -15.7229 -53.5562
rfingers 7.12502
rthumb -169.533 816.724
lclavicle -9.54166e-014 -9.54166e-014
lhumerus -1.47558 17.6678 5.04609
lradius 23.2278
lwrist 33.84
lhand -31.9391 -14.4359
lfingers 7.12502
lthumb -5.18991 15.4805
rfemur -33.5636 6.92695 32.4567
rtibia 52.4733
rfoot 3.31123 -20.6675
rtoes 21.5486
lfemur 10.3574 31.0316 -3.09188
ltibia 89.1133
lfoot 8.37534 0.221039
ltoes 4.69603
985
root -2.26994 14.4376 21.1742 24.3409 43.44 62.8289
lowerback -18.359 -12.4898 0.450775
upperback -15.8846 -15.8803 -0.396272
thorax -7.78792 -8.07869 -2.37273
lowerneck -0.628324 -11.7884 -16.3548
upperneck 49.3783 -14.0725 -9.13289
head 20.3375 -9.3151 -3.99667
rclavicle 8.26944e-014 4.13472e-014
rhumerus -3.6776 -36.3776 29.0604
rradius 34.8766
rwrist -8.0384
rhand -15.3855 -52.6827
rfingers 7.12502
rthumb -169.207 817.615
lclavicle 8.26944e-014 4.13472e-014
lhumerus 0.517931 13.5809 5.57563
lradius 23.508
lwrist 34.8707
lhand -32.2982 -13.4281
lfingers 7.12502
lthumb -5.53663 16.4795
rfemur -33.2834 6.47221 33.1016
rtibia 52.4767
rfoot 3.308 -20.575
rtoes 21.3941
lfemur 10.5297 30.6921 -2.29746
ltibia 89.0841
lfoot 8.32591 -0.142642
ltoes 2.81016
986
root -2.26274 14.4594 21.2447 24.007 44.0602 62.5153
lowerback -18.6529 -12.7446 0.541996
upperback -15.2346 -16.2068 0.030159
thorax -6.77425 -8.21397 -2.19056
lowerneck -1.4564 -11.8935 -16.3325
upperneck 48.9908 -14.0268 -9.0419
head 20.2909 -9.26835 -3.9802
rclavicle 9.38264e-014 1.08139e-013
rhumerus -3.25349 -38.4891 28.7272
rradius 34.5254
rwrist -7.00625
rhand -14.6406 -52.191
rfingers 7.12502
rthumb -168.489 818.145
lclavicle 9.38264e-014 1.08139e-013
lhumerus -0.0484197 13.7435 5.3993
lradius 23.8698
lwrist 36.0101
lhand -32.5515 -13.1831
lfingers 7.12502
lthumb -5.78118 16.7181
rfemur -32.9089 6.06988 33.537
rtibia 52.403
rfoot 3.19323 -20.4839
rtoes 21.604
lfemur 10.8294 30.4834 -1.79946
ltibia 89.0187
lfoot 8.33414 -0.213782
ltoes 1.84054
987
root -2.26157 14.4388 21.3465 24.8189 43.9109 63.4052
lowerback -19.9082 -13.6756 -1.8925
upperback -14.1001 -17.0143 1.08393
thorax -3.84692 -8.38029 -0.641793
lowerneck -3.28276 -11.9578 -16.149
upperneck 48.1149 -13.543 -9.20098
head 20.1098 -9.05472 -4.06216
rclavicle 1.49486e-013 6.99722e-014
rhumerus -3.50989 -40.6541 29.188
rradius 34.8319
rwrist -7.70642
rhand -12.9342 -52.033
rfingers 7.12502
rthumb -166.843 818.402
lclavicle 1.49486e-013 6.99722e-014
lhumerus -1.35317 15.7693 5.12983
lradius 24.027
lwrist 36.4442
lhand -32.549 -13.4292
lfingers 7.12502
lthumb -5.77881 16.472
rfemur -33.1346 6.51165 32.9164
rtibia 52.6078
rfoot 2.90366 -20.9391
rtoes 23.1274
lfemur 10.6582 30.7695 -2.48265
ltibia 89.0858
lfoot 8.43998 -0.686528
ltoes -0.0888768
988
root -2.25457 14.4486 21.4687 24.6862 44.6321 62.8456
lowerback -20.4767 -13.7539 -1.47822
upperback -13.8766 -17.1361 1.29244
thorax -3.36769 -8.45321 -0.811956
lowerneck -3.49945 -12.0488 -16.1555
upperneck 48.1285 -13.5978 -9.27141
head 20.1735 -9.07734 -4.13138
rclavicle 2.38542e-014 -1.27222e-014
rhumerus -2.01461 -42.989 27.6455
rradius 34.0994
rwrist -5.61238
rhand -13.8487 -51.7791
rfingers 7.12502
rthumb -167.725 818.601
lclavicle 2.38542e-014 -1.27222e-014
lhumerus -1.60651 14.1674 4.93392
lradius 24.6078
lwrist 38.1609
lhand -32.5807 -13.6055
lfingers 7.12502
lthumb -5.80938 16.2948
rfemur -33.2866 6.64129 33.6276
rtibia 52.78
rfoot 2.05436 -21.4338
rtoes 24.6268
lfemur 10.627 30.714 -1.46911
ltibia 89.0672
lfoot 8.51544 -1.33802
ltoes -1.43583
989
root -2.27206 14.4543 21.5689 25.2996 44.4144 63.3428
lowerback -20.2771 -13.6823 -1.94798
upperback -14.062 -16.9763 1.24644
thorax -3.55672 -8.34337 -0.542323
lowerneck -3.28921 -12.1037 -16.2328
upperneck 48.1579 -13.726 -9.23726
head 20.1562 -9.13225 -4.10896
rclavicle 9.22361e-014 5.08889e-014
rhumerus -3.08077 -40.7303 28.6376
rradius 34.7922
rwrist -8.51229
rhand -18.8631 -53.0369
rfingers 7.12502
rthumb -172.563 817.114
lclavicle 9.22361e-014 5.08889e-014
lhumerus -0.704811 17.2294 5.6805
lradius 23.3845
lwrist 34.6226
lhand -31.5721 -14.7302
lfingers 7.12502
lthumb -4.83561 15.1946
rfemur -33.8917 7.38358 33.115
rtibia 53.1672
rfoot 1.77513 -21.5999
rtoes 25.2019
lfemur 10.538 31.1086 -1.81177
ltibia 88.9524
lfoot 8.84147 -0.938757
ltoes 2.26412
990
root -2.27648 14.4686 21.6582 25.892 44.3985 64.111
lowerback -19.3504 -13.2145 -1.48589
upperback -14.8118 -16.4911 0.433895
thorax -5.25046 -8.16837 -1.13381
lowerneck -2.25238 -12.0522 -16.1422
upperneck 48.8056 -13.9505 -9.26003
head 20.3151 -9.20592 -4.14908
rclavicle 1.74931e-014 1.59028e-014
rhumerus -4.79215 -36.1801 30.1345
rradius 35.8858
rwrist -11.7136
rhand -16.4947 -52.9311
rfingers 7.12502
rthumb -170.277 817.313
lclavicle 1.74931e-014 1.59028e-014
lhumerus 0.0476957 15.4529 5.74449
lradius 23.5172
lwrist 34.9966
lhand -31.5931 -14.6841
lfingers 7.12502
lthumb -4.85588 15.2402
rfemur -34.1061 7.585 32.5138
rtibia 53.4463
rfoot 2.06884 -21.351
rtoes 24.9274
lfemur 10.6653 31.1804 -2.35057
ltibia 88.7467
lfoot 9.03281 -0.650876
ltoes 4.41352
991
root -2.27183 14.4826 21.7373 25.9698 44.8687 64.1635
lowerback -19.0101 -13.1042 -0.942661
upperback -14.9499 -16.4415 0.240274
thorax -5.78932 -8.19211 -1.46479
lowerneck -2.05958 -12.0632 -16.0525
upperneck 48.9989 -14.007 -9.33266
head 20.3764 -9.21693 -4.21021
rclavicle 1.43125e-014 1.27222e-014
rhumerus -5.20508 -35.8771 30.5227
rradius 35.94
rwrist -10.6042
rhand -12.4257 -51.987
rfingers 7.12502
rthumb -166.353 818.48
lclavicle 1.43125e-014 1.27222e-014
lhumerus 0.0709049 14.1853 5.57372
lradius 23.8839
lwrist 36.1861
lhand -32.5395 -13.6021
lfingers 7.12502
lthumb -5.76962 16.2993
rfemur -34.0921 7.43938 32.6526
rtibia 53.6155
rfoot 2.13526 -21.1764
rtoes 24.7914
lfemur 10.7332 31.0334 -2.19498
ltibia 88.6675
lfoot 9.05092 -0.739141
ltoes 3.7349
